<svg width="29" height="29" viewBox="0 0 29 29" fill="none" xmlns="http://www.w3.org/2000/svg">
<g id="Discord">
<path id="Vector" d="M21.4136 7.31783C20.035 6.65377 18.5802 6.17982 17.0855 5.90779C17.072 5.9054 17.0581 5.90747 17.0457 5.91371C17.0333 5.91996 17.0231 5.93007 17.0164 5.94266C16.829 6.29134 16.6217 6.7474 16.4769 7.10444C14.8658 6.84783 13.227 6.84783 11.6159 7.10444C11.4543 6.70671 11.2715 6.31883 11.0684 5.94266C11.0616 5.93021 11.0513 5.92021 11.039 5.91399C11.0266 5.90776 11.0128 5.9056 10.9993 5.90779C9.5043 6.17837 8.04918 6.65256 6.67114 7.31783C6.65935 7.32256 6.64948 7.33143 6.64323 7.34294C3.88715 11.6651 3.13102 15.8813 3.50178 20.0444C3.50311 20.064 3.51507 20.0835 3.52969 20.0961C5.1346 21.3438 6.92973 22.2964 8.83853 22.9133C8.85201 22.9178 8.86649 22.9176 8.87987 22.9129C8.89325 22.9081 8.90484 22.899 8.91295 22.8868C9.32224 22.3011 9.68635 21.6832 9.99996 21.0333C10.0065 21.0199 10.0087 21.0047 10.0063 20.9898C10.0039 20.975 9.99705 20.9614 9.98668 20.951C9.97981 20.9442 9.97166 20.939 9.96276 20.9357C9.39023 20.7047 8.83573 20.4273 8.30432 20.1058C8.28948 20.097 8.27844 20.0825 8.27349 20.0654C8.26855 20.0482 8.27007 20.0298 8.27775 20.0138C8.28227 20.0034 8.2891 19.9943 8.29768 19.9873C8.4093 19.8994 8.52093 19.8073 8.62724 19.7153C8.63663 19.7074 8.6479 19.7023 8.65984 19.7006C8.67177 19.6988 8.68393 19.7006 8.69501 19.7055C12.1753 21.3736 15.9427 21.3736 19.3805 19.7055C19.392 19.7003 19.4046 19.6985 19.417 19.7002C19.4294 19.7019 19.4411 19.7071 19.4509 19.7153C19.5572 19.8073 19.6688 19.8994 19.7805 19.9873C19.7895 19.9942 19.7968 20.0034 19.8016 20.014C19.8064 20.0246 19.8087 20.0363 19.8082 20.048C19.8076 20.0598 19.8044 20.0712 19.7986 20.0813C19.7928 20.0914 19.7848 20.0998 19.7752 20.1058C19.245 20.4302 18.6897 20.7073 18.1154 20.9343C18.1062 20.9377 18.0979 20.9433 18.091 20.9505C18.0841 20.9578 18.0788 20.9665 18.0755 20.9761C18.0724 20.9854 18.0712 20.9953 18.0719 21.0051C18.0726 21.015 18.0752 21.0245 18.0795 21.0333C18.3984 21.6818 18.7639 22.3011 19.1652 22.8868C19.1733 22.899 19.1849 22.9081 19.1983 22.9129C19.2117 22.9176 19.2261 22.9178 19.2396 22.9133C21.1516 22.2983 22.9497 21.3456 24.5564 20.0961C24.5645 20.0902 24.5712 20.0825 24.576 20.0736C24.5808 20.0647 24.5837 20.0547 24.5843 20.0444C25.0282 15.2313 23.8415 11.05 21.4402 7.34433C21.4378 7.33821 21.4342 7.33269 21.4296 7.32813C21.425 7.32356 21.4196 7.32006 21.4136 7.31783ZM10.5196 17.5089C9.47107 17.5089 8.60863 16.4991 8.60863 15.2606C8.60863 14.0207 9.45513 13.011 10.5196 13.011C11.592 13.011 12.4464 14.0291 12.4305 15.2606C12.4305 16.4991 11.584 17.5089 10.5196 17.5089ZM17.5838 17.5089C16.5367 17.5089 15.6729 16.4991 15.6729 15.2606C15.6729 14.0207 16.5194 13.011 17.5838 13.011C18.6562 13.011 19.512 14.0291 19.4948 15.2606C19.4948 16.4991 18.6562 17.5089 17.5838 17.5089Z" fill="#ABB2BF"/>
</g>
</svg>
