<svg width="29" height="29" viewBox="0 0 29 29" fill="none" xmlns="http://www.w3.org/2000/svg">
<g id="Email">
<path id="Vector" d="M5.21485 8.63086C5.3381 8.09861 5.6411 7.62338 6.07422 7.283C6.50734 6.94262 7.0449 6.75727 7.59887 6.75731H22.2698C22.8237 6.75727 23.3613 6.94262 23.7944 7.283C24.2275 7.62338 24.5305 8.09861 24.6538 8.63086L14.9343 14.4853L5.21485 8.63086ZM5.15372 10.0068V18.5661L12.2483 14.2792L5.15372 10.0068ZM13.4195 14.9865L5.38723 19.8384C5.58569 20.2508 5.89891 20.5992 6.29045 20.843C6.68198 21.0868 7.13573 21.216 7.59887 21.2156H22.2698C22.7328 21.2157 23.1864 21.0862 23.5777 20.8422C23.969 20.5982 24.282 20.2497 24.4802 19.8372L16.4479 14.9853L14.9343 15.8974L13.4195 14.9853V14.9865ZM17.6203 14.2804L24.7149 18.5661V10.0068L17.6203 14.2792V14.2804Z" fill="#ABB2BF"/>
</g>
</svg>
