<svg width="29" height="29" viewBox="0 0 29 29" fill="none" xmlns="http://www.w3.org/2000/svg">
<g id="Github">
<path id="Vector" d="M14.0059 5.90686C9.07203 5.90686 5.07581 9.80905 5.07581 14.6268C5.07581 18.4854 7.63205 21.7445 11.1818 22.8999C11.6283 22.9762 11.7957 22.7146 11.7957 22.4857C11.7957 22.2786 11.7846 21.5919 11.7846 20.8616C9.54086 21.2649 8.96041 20.3275 8.7818 19.837C8.68134 19.5863 8.246 18.8124 7.86647 18.6053C7.55391 18.4418 7.10741 18.0385 7.8553 18.0276C8.55855 18.0167 9.06087 18.6598 9.22831 18.9214C10.032 20.2403 11.3157 19.8697 11.8292 19.6408C11.9073 19.074 12.1418 18.6925 12.3985 18.4745C10.4115 18.2565 8.3353 17.5044 8.3353 14.169C8.3353 13.2208 8.68134 12.436 9.25063 11.8256C9.16133 11.6076 8.84878 10.7138 9.33994 9.51475C9.33994 9.51475 10.0878 9.28585 11.7957 10.4086C12.5101 10.2124 13.2692 10.1143 14.0282 10.1143C14.7873 10.1143 15.5464 10.2124 16.2608 10.4086C17.9687 9.27495 18.7166 9.51475 18.7166 9.51475C19.2077 10.7138 18.8952 11.6076 18.8059 11.8256C19.3752 12.436 19.7212 13.2099 19.7212 14.169C19.7212 17.5153 17.6338 18.2565 15.6468 18.4745C15.9705 18.747 16.2496 19.2702 16.2496 20.0877C16.2496 21.254 16.2385 22.1914 16.2385 22.4857C16.2385 22.7146 16.4059 22.9871 16.8524 22.8999C18.6253 22.3157 20.1658 21.2032 21.2572 19.7191C22.3486 18.2349 22.9357 16.4539 22.936 14.6268C22.936 9.80905 18.9398 5.90686 14.0059 5.90686Z" fill="#ABB2BF"/>
</g>
</svg>
