<svg width="29" height="29" viewBox="0 0 29 29" fill="none" xmlns="http://www.w3.org/2000/svg">
<g id="Linkedin">
<path id="Vector" d="M4.24487 5.66783C4.24487 4.86029 4.91591 4.20584 5.74386 4.20584H23.1576C23.9855 4.20584 24.6566 4.86029 24.6566 5.66783V23.1556C24.6566 23.9631 23.9855 24.6175 23.1576 24.6175H5.74386C4.91591 24.6175 4.24487 23.9631 4.24487 23.1556V5.66783ZM10.5508 21.293V12.0758H7.48778V21.293H10.5508ZM9.01993 10.8167C10.0877 10.8167 10.7524 10.1099 10.7524 9.22457C10.7332 8.32008 10.089 7.63246 9.04035 7.63246C7.99169 7.63246 7.30663 8.32135 7.30663 9.22457C7.30663 10.1099 7.97128 10.8167 8.99952 10.8167H9.01993ZM15.2812 21.293V16.1454C15.2812 15.8699 15.3016 15.5943 15.3833 15.3978C15.604 14.848 16.1079 14.2777 16.955 14.2777C18.0636 14.2777 18.5063 15.1223 18.5063 16.3623V21.293H21.5693V16.0064C21.5693 13.1742 20.0588 11.8577 18.0432 11.8577C16.4179 11.8577 15.6895 12.7507 15.2812 13.3796V13.4115H15.2608C15.2676 13.4009 15.2744 13.3902 15.2812 13.3796V12.0758H12.2195C12.2577 12.9408 12.2195 21.293 12.2195 21.293H15.2812Z" fill="#ABB2BF"/>
</g>
</svg>
