<svg width="29" height="29" viewBox="0 0 29 29" fill="none" xmlns="http://www.w3.org/2000/svg">
<g id="Telegram">
<path id="Vector" d="M23.845 13.9864C23.845 16.5804 22.8146 19.0682 20.9803 20.9024C19.1461 22.7366 16.6584 23.7671 14.0644 23.7671C11.4704 23.7671 8.98271 22.7366 7.14849 20.9024C5.31427 19.0682 4.28381 16.5804 4.28381 13.9864C4.28381 11.3925 5.31427 8.90474 7.14849 7.07052C8.98271 5.2363 11.4704 4.20584 14.0644 4.20584C16.6584 4.20584 19.1461 5.2363 20.9803 7.07052C22.8146 8.90474 23.845 11.3925 23.845 13.9864ZM14.4153 11.4264C13.4641 11.8225 11.5618 12.6416 8.71076 13.8838C8.24863 14.0671 8.00533 14.2481 7.98333 14.4241C7.94665 14.7212 8.31954 14.8386 8.8269 14.9987L9.04085 15.066C9.53967 15.2286 10.2121 15.4181 10.5605 15.4254C10.8784 15.4328 11.2317 15.3032 11.6217 15.0342C14.2857 13.2358 15.6611 12.3274 15.7467 12.3079C15.8078 12.2932 15.8934 12.2761 15.9496 12.3274C16.0071 12.3775 16.001 12.4741 15.9949 12.4998C15.9582 12.6575 14.4948 14.017 13.738 14.7212C13.502 14.9413 13.3345 15.0965 13.3003 15.132C13.2249 15.209 13.1483 15.2848 13.0705 15.3594C12.6059 15.8069 12.2587 16.1418 13.0888 16.6896C13.4886 16.9536 13.8089 17.17 14.128 17.3877C14.4752 17.6248 14.8224 17.8608 15.2723 18.1567C15.386 18.23 15.4961 18.3095 15.6024 18.3853C16.0071 18.6738 16.3726 18.933 16.8213 18.8914C17.083 18.867 17.3531 18.6225 17.4901 17.8889C17.8141 16.1565 18.451 12.4044 18.5977 10.8579C18.6067 10.7293 18.6013 10.6002 18.5818 10.4728C18.5703 10.37 18.5206 10.2753 18.4425 10.2075C18.3312 10.1307 18.1986 10.0909 18.0635 10.0938C17.6967 10.0999 17.1306 10.2967 14.4153 11.4264Z" fill="#ABB2BF"/>
</g>
</svg>
